<svg id="Layer_1" xmlns="http://www.w3.org/2000/svg" viewBox="0 0 814.72 616.7"><defs><style>.cls-1{fill:#b06e8a}</style></defs><rect width="100%" height="100%" fill="#fff"/><path class="cls-1" d="M498.16 610.11c-15.88-3.89-32-6.1-46.73-13.57-10.1-5.13-9.86-4.88-7.19-16.93 3.05-13.81 5.35-27.78 8.13-41.64 3.07-15.29 6.29-30.54 9.47-45.8 3.23-15.46 6-31 8.62-46.59 4-23.45 7.4-47 13.4-70.1.62-2.37.94-4.24-1.4-6.07a9.21 9.21 0 01-3.33-8.84c.66-3.75-1.5-4.27-3.9-4.9-25-6.55-45.41-20-62.07-39.62-17.83-21-28-45.3-32.91-72.22-3-16.42-4-32.87-1.78-49.32 3.5-26.38 12.38-50.88 29.4-71.63 14.21-17.33 32.27-30.14 52.25-40.24 3.54-1.79 7.43-3 10.71-6.2a68.58 68.58 0 01-6.89-2.94c-4.62-2.58-6.55-8.36-3.56-12.68 2.49-3.6.42-4.84-2-6.13-9.32-5-18.54-4.81-27.53.93-9.85 6.38-13.68 16.17-15.5 27.15C413.49 94.09 414 106 408 116.33c-7.4 12.72-22.7 20.93-37 14.24-9.92-4.63-15.73-17.59-12.61-28.11 1.94-6.57 7.08-8.87 13.7-7 3 .84 3.67 3.12 4 4.94a4.25 4.25 0 01-3.53 4.6c-4 .9-4.4 3.22-2.72 6.68 2.25 4.62 5 8.8 10.63 8.81 6.3 0 10.56-4.06 14-8.89 5.09-7.18 5.4-15.7 5.85-24 .81-14.93 5.3-28.14 16.3-38.66 7.78-7.43 17-12.4 27.75-13.15 9.21-.64 17.67 2.7 25.35 7.85 5.13-11.83 12-12.87 19.88-2.86 2.79-3.93 6.48-6.56 11.38-6.05 3.23.34 5.68 2.37 6.83 5.92 16.87-16 37.13-25.43 59.63-29.78C591 6.3 614 9.81 636.13 18.89a133.46 133.46 0 0144.93 30.31C694.56 63 703.87 79.38 711.3 97c13.29 31.45 20.56 64.69 29.08 97.57 6.75 26 14.28 51.81 27.21 75.61 8.13 15 18.34 28.47 29.37 41.43 6.78 8 13.11 16.22 21.44 22.74 2.8 2.19 4.72 5.46 7.25 8a7.08 7.08 0 011.35 7.95c-4.42 9.89-7.53 20.52-16.61 27.85-10.49 8.47-21.93 14-35.57 14.44-11.23.33-22.46-.68-33.65 1.87s-17.89 9.17-21.9 19.43c-3.08 7.88-5.25 16.18-10.5 23.09-6.42 8.46-15 12.75-25.45 13.58-16.15 1.3-30.69-4.38-44.23-12-11.17-6.27-21.62-5.88-32.64-1-8.41 3.74-10.38 8.1-7.09 16.52 5.44 13.92 8.06 28.73 13.92 42.51 11 25.8 17.61 53 26 79.69A80.12 80.12 0 00644 587c4.23 8.7-.59 15.93-10.16 15.45-5.3-.26-9.49 3-14.2 4.56a150 150 0 01-40.24 7.56c-11.33.5-22.49 1.87-32.27 8.55a12.85 12.85 0 01-6.4 2.26c-4 .15-6.11-2.23-6.66-6.37-.2-1.46 1.63-4.08-.54-4.22-2.73-.17-5.16-2-8.19-.86-8 3-16 6.18-23.7 9.94-5.89 2.86-8.08 2.08-10.39-2.85-2-4.18-.68-6.4 5-9 .63-.32 2.06-.26 1.91-1.91zM469.1 86c-12.63 8.49-24.83 17.3-35.88 27.44-24.76 22.72-38.22 51.41-41.69 84.56a152.53 152.53 0 002.75 49.18c6.24 28.28 18.57 52.87 41 71.9 24.77 21 54.22 27.93 85.64 28.12a166.76 166.76 0 0032.82-3.45c25.47-5 49.38-13.81 71.28-27.6 19.66-12.36 36.42-27.9 47.27-48.84 9-17.29 13.05-35.53 11.25-55.28-1.3-14.21-4.59-27.67-10.76-40.34a155.13 155.13 0 00-50.17-59.24c-6.91-4.92-14-9.66-22.78-13.2 2.65 4 5 7 6.74 10.3 9.13 16.82 13.95 33.94 1.4 51.25-7.72 10.65-18.67 16-31.68 15.64a48.12 48.12 0 01-23.94-7.66c-12.66-7.9-19.52-22.29-15.55-36 3.47-11.95 12.7-17.13 24.19-18.83a27.55 27.55 0 0123.56 7.46 11.46 11.46 0 013.65 11.17c-1.38 6.34-11.22 13.78-17.94 14.08-2.8.12-5.07-.41-5.76-3.37a5.59 5.59 0 012.83-6.67c1.58-.89 3.09-1.9 4.68-2.77s3.47-1.85 3.34-3.88c-.16-2.39-2.61-2.56-4.33-3.35a16 16 0 00-8.21-1c-9 .78-17.52 8.9-14.51 19.68 2.39 8.62 15.7 19.7 27.7 18.84 16.21-1.16 28.34-13.57 25.62-29.91-3.86-23.28-25.56-42-47.24-45.58-10.9-1.82-22.08-.67-33-2.9-1.58-.33-3.64-1-5.34 1.21-6.84 8.71-18.48 9.37-24.19-1-7.46 9.79-16.99 10.51-22.75.04zm122.51 347.62a55.7 55.7 0 0112.77-8.23c10.38-4.91 20.7-6.85 32-2.08 10.3 4.33 20.21 9.66 31.05 12.69 16.72 4.68 27.9-.22 34.77-15.29 2-4.27 3.49-8.73 5.09-13.14 4.86-13.46 13.87-22.49 27.8-26.36a63.48 63.48 0 0116.47-2.61c9.16-.08 18.43.79 27.45-.33 15.17-1.89 23.41-13.09 30.48-25.29.57-1 .26-1.62.17-2.58-.4-4.19-4.14-5.2-6.55-7.42-7-6.43-11.32-15-17.81-21.82-13.79-14.48-24.86-30.82-34.07-48.54-13.14-25.26-20-52.62-26.91-79.92-7.78-30.54-14.27-61.48-27.07-90.49-14.13-32-35.27-57.63-68.45-71.35-21.33-8.86-43.4-9.79-65.8-4.48a104.17 104.17 0 00-43.87 22.25c-1.93 1.63-1.67 2.52-.09 4.27 4.39 4.84 4.48 9.29.52 14a36.07 36.07 0 01-4 3.57 9.58 9.58 0 001.72.12c17.66-2 35.39-2.16 52.79 1.31 30.62 6.11 57.06 20.83 79.86 41.91a165.48 165.48 0 0138.89 53.42c11.38 25.06 14.83 51.17 8.21 78-7.81 31.65-26.29 56.22-52 75.72-20.64 15.65-44.06 25.49-68.77 32.39-5.09 1.42-9 2-6.92 8.53a2.71 2.71 0 01-.2 1.94c-1.26 2.17-.83 3.83.65 5.85 1.3 1.79 1.87 4.15 2.59 6.31 6.37 19.12 12.73 38.2 19.23 57.65zm-30.21-46.15c-.1 3.9-.68 6.86-.9 9.76-1.38 18.54-7.18 36.25-9.84 54.54-1.38 9.49-3.34 18.92-5.37 28.3-1.66 7.6-1.58 15.53-4.87 22.84-2.22 4.92-6.85 5.63-10.9 6.1-3.58.41-6.47-2.39-8.24-6-2.75-5.67-3.89-11.82-4.75-17.82-3.86-27.16-16.13-51.52-24.85-77.09a21.24 21.24 0 00-.36 3c-2.63 14.41-5.55 28.77-7.89 43.23-2.74 17-6.31 33.87-9.81 50.75-2.52 12.11-5.33 24.16-7.46 36.37-1.93 11.06-2.29 22.38-5.75 33.22-3.2 10.06-3 10.14 7 13.44a18 18 0 001.9.44c19 4 38.1 7.53 57.53 9.1 18.15 1.47 36.24 3 54.46 1 14.52-1.6 28-6.78 41.83-11 3.13-.95 3.65-2.21 2.49-5.37-7.75-21-14.11-42.55-20.79-63.95-6.56-21.06-16.16-41.07-21.22-62.69-4.66-19.95-13-38.77-18.73-58.42-.88-3.05-.97-6.41-3.48-9.75zM529.94 476c5.88-20.17 8.31-39.91 12.3-59.31 2.54-12.34 4.06-24.88 6.12-37.31.93-5.58 3.62-10.88 2.94-16.71-.13-1.12 1.48-3.35-1.79-3.33s-2.17 1.89-2.16 3.47c.06 6.34-3.39 10.43-9.09 10.74-6.72.37-10.29-2.72-10.89-9.65-.14-1.54-.18-2.42-2.11-2.4-2.71 0-1 1.4-1 2.47 0 3.77-1.31 7.3-4.51 9.31-3.5 2.19-7.08 3.27-11.35.33a17.16 17.16 0 01-7.4-10.22c-1.24 5.6-2.38 10.36-1.48 15.1 3.68 19.57 10.15 38.28 17.77 56.64A245.46 245.46 0 01529.94 476zM79.52 591.77c-6.26 0-10.55-2.61-15.36-3.4-3.93-.64-5.41-4.19-4-8.26 12.07-34.37 22.27-69.34 33.66-103.92 11.48-34.88 23.83-69.47 35.76-104.2 1.78-5.18 3.35-10.44 5-15.73-.6-.13-1-.32-1.09-.22-8.67 8.93-18 17.13-27.27 25.4-10.94 9.79-19.94 21.49-30.74 31.38-10.41 9.54-21.31 18.51-33.94 25.12-8.9 4.65-17.38 3.28-25.59-1.49-3.62-2.11-3.61-5.71-2.12-9.14a6.33 6.33 0 018.71-3.38c3.41 1.56 7.06 1 10.36 2.51 2.27 1 4.12-1 5.8-2.08 13-8.32 24-18.94 34.64-30.1 11.57-12.18 23.79-23.69 36.33-34.88A237.69 237.69 0 00132.86 336c2.15-2.54 1.18-3.46-1.12-4.28-22.17-8-42-20-60-35.14-25.11-21.17-43.84-46.76-53-78.42-8-28-5.92-55.59 6.48-82.36a150.84 150.84 0 0132.11-45.35c14.73-14.28 31.73-25.19 52-30.18 7.36-1.81 14.81-3.11 22.81-2.56-3.51-9.41-9.2-17-16-23.85-2.15-2.17-4.92-4.27-2.55-7.73s5.78-2.91 9.26-1.7a21 21 0 019.9 7.15c6 7.92 11.92 16 14.68 25.77 1.28 4.53 5.57 2.85 9.41 5-4.27-11.64-6.32-22.83-13.74-31.83-1.66-2-1.92-4.45-1.71-7s2.08-3.78 3.88-4.74c1.54-.81 2.91.46 4.38 1.4 7.24 4.59 10.72 11.72 13.76 19.25 1.33 3.31 2.8 6.57 4.18 9.77 9.16-9.87 16.69-21.19 27.82-29.07a18.23 18.23 0 0111-3.48 6.6 6.6 0 016.73 6.53c.2 3.11-1.12 5.95-5.58 6.61-8.46 1.25-13.42 8.13-18.55 14-6 6.85-11 14.51-16.67 22.06 13.81-.12 27.25-1.9 40.76-1.11 22.57 1.32 44.9 4 65.87 13.13 26.94 11.74 44 32.05 51.43 60.45a147.69 147.69 0 014.26 49.88 201.65 201.65 0 01-22.87 78.49c-14.35 27.19-34.49 49-61.83 63.6a94.1 94.1 0 01-20.64 8c12.11 6.73 22.4 14.4 32.46 22.31C279 374.17 296 388 313 401.76a45.54 45.54 0 015.35 4.38c2.95 3.21 5.74-.23 8.95.41-11.06-11-22.53-21-31.13-33.61-7.11-10.43-11.78-21.57-10.88-34.59.65-9.46 8.2-20.21 16.85-23 8.11-2.59 19.35.48 25.53 7.61 1 1.12 2 2.2 3.12 3.42 5.26-7.86 11.51-14.08 21.15-15.84 12-2.2 24.64 5.22 28.38 16.79 4.07 12.59.34 24-6.15 34.51-10.39 16.78-22.95 31.79-39.66 43.25 3.24 1.08 6.4 1.43 9.22 3s4.87 4 4.39 7c-.53 3.43-3.64 5.28-6.9 5.29-5.33 0-10.42 1-15.61 2-7.61 1.45-13.68-3-19.53-6.85-13.2-8.76-24.6-19.79-36.89-29.7s-24.67-19.7-37.67-28.68c-1.45-1-2-.45-2.69.71-2.3 3.95-5.63 5.13-10 3.36.94 18.31 4.42 35.94 9 53.44a379.92 379.92 0 019.7 47.84c1.7 13.41 4.69 26.66 6.72 40 1.68 11 2.67 22.16 4.18 33.22 2.34 17.17 3.35 34.54 7.67 51.42 1.66 6.47-1.19 10.4-7.86 11.33-4.18.57-8.31 1.43-12.56 2.18 1.18 1.76 3.61 1.56 4.64 3.44 1.41 2.58 1.55 5.15-.44 7.24-2.7 2.81-6.17 2.75-9.6 1.44a53 53 0 01-15.28-9.21 17.31 17.31 0 00-11.82-4c-6.79 0-13-2.78-19.78-3.42-4-.38-4.11-5.38-5-8.79-1.86-7.38-3.87-14.69-8.38-21-7.52-10.49-20-13.54-28.59.15-4.16 6.66-9.26 13.22-7.62 22.37.63 3.54-2.33 6.73-6.89 6.66a56.14 56.14 0 01-6.49 0c-12.15-1.61-23 1.64-33 8.4A19.11 19.11 0 0178 607.6c-3.26.21-5.61-.44-7-3.89s0-5.46 2.22-7.4c1.54-1.37 3.36-2.45 6.3-4.54zm238.91-416.51c-.5-8-1-17.46-3-26.87-5.09-23.84-17.88-41.89-39.88-52.65-17.23-8.42-36.08-11-54.91-13-16.17-1.71-32.4-2.7-48.6-4.11-5.41-.47-11.37.29-13.75-6.89-1.58-4.77-5.73-7.29-9.47-4.73-5.16 3.51-9.23 5.86-14.35.73-.06-.06-.31.06-.47.09-16.72 2.84-32.85 7.28-47.15 16.87-11.88 8-21.81 18-30.95 28.88-15.3 18.27-24.55 39.12-26.39 62.85-1.68 21.74 3.19 42.37 13.41 61.6A153.64 153.64 0 0088.5 290.4c23.77 17.39 49.77 29.4 79 34.48 3.69.64 2.8-.63 2.94-2.54.63-8.31 5.7-11 12.71-6.71 4.37 2.67 8.87 5.14 12.62 8.72s7.56 3.1 11.26.06a58.48 58.48 0 0110.31-6.41c2.95-1.51 6-1.46 8 1.31 1.8 2.57 3.28 2.44 6 1.53 23.4-7.76 40.82-23.44 54.74-42.87 21.54-30.11 31.32-64.31 32.35-102.71zM170.31 341.65c-4.48.2-9-1.17-13.29-2.36-3.56-1-3.78.77-4.4 2.76-4.34 13.87-8.34 27.85-12.94 41.64-10.87 32.56-22.4 64.9-32.92 97.56-10 30.92-18.9 62.17-29.5 92.88-1.41 4.09-.29 4.79 3.34 5.51 11.79 2.34 23.7 1.78 35.59 2 2.54.05 3.74-.89 4.1-3.1 1.12-7 4.35-13.19 8.22-19 14.58-22 38.08-22.68 53.76-1.53 4.87 6.57 7.89 14 10.28 21.82.39 1.26 0 3.3 2.79 3.89 14.4 3.09 28.8 2.57 43.28.92 2.17-.24 1.68-1.53 1.76-2.77.28-4.66-.81-9.16-1.57-13.69-1.41-8.39-3.2-16.73-4.37-25.15-1.91-13.69-3.29-27.46-5.21-41.15-1.73-12.3-4-24.51-5.8-36.81-2-14.25-3.91-28.53-7.64-42.45-5.77-21.55-10.5-43.25-11.44-65.65-.26-6.14-1.18-6.5-6.6-3.33-5.66 3.33-11.22 6.86-17 10-4.77 2.59-10.06.41-10.35-4.27-.4-5.77-.09-11.54-.09-17.72zm198.17-3.21c-.56-6-2.07-11.53-8.12-14.08-5-2.11-9.4-.51-13.58 3.1-4.65 4-6.71 9.42-9.47 14.52-1.3 2.41-2.44 4.82-6.08 4.77s-5.8-1.77-7.15-4.88a34.74 34.74 0 00-5.34-9.32c-2.93-3.33-6.1-6.81-11.19-5.33-5.66 1.65-8.45 6.06-9.25 11.85-1.31 9.39 2.55 17.17 7 24.81 5.92 10.25 15.19 17.82 22.05 27.31 1.38 1.91 1.9.78 3 0 11.6-8.47 20.61-19.37 29-30.83 4.78-6.56 8.43-13.6 9.13-21.92z" transform="translate(-12.95 -8.87)"/><path class="cls-1" d="M511.33 299.68c20.68-.83 38.15-8.41 53.25-21.8 13-11.57 22.69-25.75 31.48-40.6 1.45-2.45 1.81-4.06-1.41-6.26-3.65-2.5-6.59-6.43-6.35-11.66.16-3.31 1.85-5.25 4.93-5.7 2.81-.4 6.24-1.25 7 3 .31 1.64 1.51 2.22 2.52 2.85 7.08 4.46 13.94 9.39 23.26 7.3 3.31-.74 6.2 1.9 7.1 4.86 1 3.22.65 6.79-2.91 9-4.93 3.08-10.19 2.47-15.11.68-3-1.11-3.87-.29-5.24 2.09-10.51 18.37-22.75 35.47-39.14 49.12C558 303.2 543.85 311.07 527 313.69c-22.63 3.52-42.77-3.41-61.52-14.74-16.38-9.89-29.66-23.52-40.57-39.3-4.6-6.65-7.9-13.88-8.5-22.06-.14-1.92-.88-2.2-2.43-2s-3.24-.2-4.89.52c-4.67 2-6.35-1.36-7.32-4.76-1-3.59.84-6.11 4.51-6.7 4.54-.74 8.32-3.4 12.76-4.54 4.18-1.07 7.9-.16 11.59.84s4.28 8.75.43 11.27c-3 2-2.74 3.65-1.68 6.27 5 12.4 13.21 22.45 22.75 31.65A127.33 127.33 0 00478 289.67c10.44 5.92 21.57 9.67 33.33 10.01zM481.3 168.76a103.31 103.31 0 014.13-26c1.45-5.1 5.06-7 9.67-6.08 3.42.71 5.64 5.21 4.36 8.56-3.72 9.75-4 19.8-2.19 29.93.89 4.89-1.52 9-6.53 10.37-3.48.92-6.93-1.87-8.45-6.41-1.15-3.46-.87-6.91-.99-10.37zm-32.95-.34c1.26-10.49 1.86-21.11 7.29-30.62 2.44-4.28 6.15-6.09 9.89-4.1s4.44 5.42 2.74 9.12c-4.28 9.32-4.87 19.19-4.92 29.23 0 5.5-3.06 8.76-7.22 8.51-4.51-.27-7.67-4-7.77-9.15-.02-1-.01-2-.01-2.99zM184.42 277.56c21.38.74 40.83-3.24 59.08-12.07 14.45-7 26.14-17.29 34.21-31.5 1.67-3 1.52-4.44-1.38-5.76a7.55 7.55 0 01-4.37-5.46c-1-3.88 1.31-7.1 5.36-7.17 4.33-.07 7.59 2.47 11 4.51 2.9 1.71 5 4.33 9.3 3.78 3.84-.48 7.27 4.34 6.65 8.17s-2.78 6.78-7.24 6.5a4.45 4.45 0 00-4.66 2.68c-14.94 27.11-39.18 41.07-68.2 48.39a157.65 157.65 0 01-55.45 3.76c-22.43-2.37-44.12-7.88-62.95-21.44-14.15-10.18-23.9-24-32.29-38.85-3.42-6.06-6.71-12.27-8.31-19.16-.19-.78-.9-1.6-.75-2.26 1.49-6.53-1.61-8.92-7.7-9.24-1.87-.1-3.61-1.39-5.09-2.8-3.69-3.54-2.79-7.6 2-9.48 1.83-.72 3.87-1 5.34-.39 4.88 2.13 8.58-.3 12.28-2.64 3.55-2.23 7.06-3.09 10.1.27 2.5 2.76.73 7-2.51 10.56-2.31 2.53-1.29 6.33-.47 9.43 3.22 12.15 9.79 22.67 17 32.67 15.51 21.36 37.42 31.59 62.91 35.63a134.84 134.84 0 0026.14 1.87zm24.01-143.16c-.84 3 .42 6.34 1.15 9.39 2.12 8.9-.68 17.15-2.26 25.57-1 5.16-4.55 7.34-9.22 6.19-4.08-1-6.13-4.73-4.77-9.46a67.89 67.89 0 002-28.55 24.64 24.64 0 010-5.43c.5-5.75 1.51-6.75 6.84-6.55 4.5.18 6.48 2.61 6.26 7-.02.51 0 1 0 1.84zm32.81 19.78c1 4.18-.8 8.31-1 12.59-.13 3.41-4.66 6.4-7.93 5.72-5-1.05-8.28-4.68-6.67-8.4 3.9-9 2.4-17.8.09-26.7-.09-.31-.25-.62-.31-.94-1.05-5.63.65-10.28 4.35-10.63 5.28-.5 6.43 3.56 7.63 7.66 2.03 6.73 4.8 13.27 3.84 20.7z" transform="translate(-12.95 -8.87)"/></svg>
