<svg xmlns="http://www.w3.org/2000/svg" viewBox="0 0 814.97 831.36"><style>.st0{fill:#232959}.st1{opacity:.15}.st2{fill:#232959;stroke:#232959;stroke-width:.25;stroke-miterlimit:10}</style><rect width="100%" height="100%" fill="#fff"/><path class="st0" d="M-581.36 711.19c-15.89-3.89-32.03-6.11-46.73-13.58-10.1-5.13-9.86-4.88-7.19-16.93 3.05-13.81 5.36-27.78 8.14-41.64 3.06-15.28 6.28-30.54 9.47-45.79 3.23-15.46 5.97-31.01 8.62-46.59 3.99-23.45 7.39-47.03 13.4-70.1.62-2.38.94-4.24-1.4-6.07-2.75-2.15-3.89-5.65-3.33-8.83.66-3.75-1.5-4.28-3.9-4.9-24.95-6.55-45.41-19.96-62.07-39.62-17.83-21.02-28.02-45.3-32.9-72.23-2.98-16.42-3.96-32.86-1.78-49.32 3.5-26.37 12.38-50.88 29.4-71.63 14.22-17.33 32.27-30.14 52.25-40.24 3.55-1.79 7.43-3.04 10.71-6.21-2.57-1.07-4.85-1.79-6.89-2.93-4.62-2.59-6.55-8.37-3.56-12.69 2.49-3.6.42-4.84-1.97-6.13-9.32-5.02-18.54-4.81-27.53.93-9.92 6.33-13.71 16.16-15.52 27.15-1.87 11.32-1.35 23.26-7.34 33.56-7.4 12.72-22.7 20.93-37.05 14.24-9.92-4.63-15.72-17.59-12.61-28.11 1.95-6.58 7.08-8.87 13.71-7.02 2.99.84 3.67 3.11 3.99 4.93.32 1.77-.96 4.03-3.54 4.61-3.99.9-4.4 3.21-2.72 6.67 2.25 4.62 5.03 8.81 10.63 8.82 6.3.01 10.56-4.07 13.98-8.9 5.09-7.18 5.41-15.7 5.86-23.98.81-14.93 5.3-28.15 16.3-38.66 7.78-7.43 16.99-12.4 27.75-13.15 9.21-.64 17.67 2.7 25.34 7.85 5.13-11.83 11.96-12.88 19.88-2.87 2.79-3.93 6.48-6.55 11.38-6.05 3.24.34 5.68 2.37 6.83 5.92 16.88-16.06 37.14-25.44 59.63-29.79 23.63-4.57 46.6-1.06 68.74 8.02 17.05 6.99 32.03 17.17 44.93 30.31 13.5 13.75 22.81 30.18 30.25 47.78 13.29 31.45 20.55 64.69 29.08 97.57 6.75 26.02 14.28 51.81 27.21 75.61 8.13 14.96 18.34 28.47 29.37 41.42 6.77 7.96 13.11 16.23 21.44 22.75 2.8 2.19 4.72 5.46 7.25 8.04 2.36 2.41 2.42 5.6 1.37 7.92-4.42 9.9-7.53 20.53-16.61 27.85-10.49 8.47-21.93 14.03-35.57 14.44-11.23.33-22.46-.68-33.65 1.87-11.12 2.53-17.89 9.17-21.9 19.44-3.08 7.88-5.25 16.17-10.5 23.09-6.42 8.45-15.04 12.74-25.45 13.58-16.15 1.3-30.69-4.39-44.23-11.99-11.17-6.27-21.62-5.89-32.64-.99-8.41 3.74-10.38 8.1-7.09 16.52 5.43 13.91 8.06 28.72 13.92 42.5 10.97 25.81 17.61 53.05 26.03 79.7 1.18 3.73 2.91 7.22 4.62 10.74 4.23 8.7-.58 15.93-10.16 15.45-5.3-.27-9.48 3.02-14.19 4.56-13.12 4.29-26.44 6.95-40.24 7.56-11.33.5-22.49 1.86-32.27 8.54-1.83 1.25-4.23 2.19-6.41 2.27-4.04.14-6.1-2.23-6.66-6.37-.2-1.46 1.63-4.08-.54-4.22-2.73-.18-5.16-1.99-8.19-.86-8.04 3-15.98 6.18-23.7 9.94-5.88 2.86-8.08 2.08-10.39-2.84-1.96-4.18-.68-6.41 4.95-9.02.7-.31 2.14-.26 1.99-1.9zm-29.07-524.13c-12.63 8.48-24.83 17.3-35.88 27.44-24.76 22.73-38.19 51.41-41.69 84.55-1.74 16.41-.85 32.88 2.75 49.19 6.24 28.28 18.57 52.86 41 71.9 24.77 21.03 54.23 27.92 85.64 28.12 10.93.07 21.93-1.33 32.83-3.45 25.46-4.97 49.37-13.81 71.28-27.59 19.65-12.37 36.42-27.9 47.27-48.84 8.96-17.29 13.05-35.54 11.25-55.29-1.3-14.21-4.59-27.67-10.76-40.34-11.67-23.95-28.42-43.77-50.17-59.24-6.91-4.92-13.96-9.66-22.78-13.2 2.65 4.01 4.96 7.02 6.74 10.3 9.13 16.82 13.95 33.94 1.4 51.25-7.72 10.65-18.67 16.03-31.68 15.63-8.45-.26-16.57-3.06-23.94-7.66-12.66-7.9-19.52-22.29-15.55-35.97 3.47-11.96 12.7-17.14 24.19-18.83 8.92-1.32 16.93 1.31 23.56 7.45 3.16 2.93 4.58 6.87 3.64 11.18-1.37 6.34-11.22 13.77-17.94 14.07-2.8.12-5.07-.4-5.75-3.37-.64-2.77.14-5.17 2.83-6.67 1.58-.89 3.09-1.9 4.68-2.77 1.63-.89 3.47-1.85 3.34-3.88-.15-2.39-2.61-2.57-4.33-3.35-2.63-1.2-5.44-1.22-8.21-.98-9.05.79-17.52 8.9-14.51 19.68 2.39 8.58 15.72 19.66 27.72 18.8 16.21-1.16 28.34-13.57 25.63-29.91-3.87-23.28-25.57-41.96-47.24-45.58-10.9-1.82-22.08-.68-32.98-2.91-1.58-.32-3.64-.96-5.34 1.21-6.83 8.72-18.48 9.37-24.19-1.05-7.51 9.87-17.05 10.59-22.81.11zm122.52 347.63c4.14-3.56 8.32-6.12 12.77-8.22 10.39-4.91 20.71-6.85 32.04-2.09 10.3 4.33 20.21 9.67 31.05 12.7 16.72 4.68 27.9-.23 34.77-15.3 1.95-4.27 3.48-8.72 5.08-13.14 4.86-13.45 13.88-22.49 27.81-26.35 5.39-1.49 10.85-2.57 16.47-2.62 9.16-.08 18.43.79 27.46-.33 15.17-1.89 23.41-13.09 30.47-25.29.58-.99.27-1.62.18-2.58-.4-4.19-4.14-5.2-6.56-7.42-6.99-6.43-11.32-15.01-17.81-21.82-13.79-14.48-24.85-30.82-34.07-48.53-13.14-25.26-19.96-52.62-26.91-79.92-7.78-30.54-14.27-61.48-27.07-90.49-14.13-32.03-35.28-57.62-68.46-71.35-21.36-8.84-43.43-9.79-65.87-4.48-16.44 3.89-30.99 11.38-43.88 22.25-1.93 1.63-1.67 2.52-.09 4.26 4.39 4.85 4.48 9.3.52 14.02-1.1 1.31-2.56 2.31-3.98 3.57.73.06 1.23.17 1.72.12 17.66-1.97 35.38-2.16 52.79 1.31 30.62 6.1 57.06 20.82 79.86 41.91 16.43 15.19 29.61 32.97 38.89 53.41 11.37 25.06 14.83 51.17 8.2 78.04-7.8 31.64-26.29 56.22-52 75.71-20.64 15.65-44.07 25.5-68.78 32.4-5.09 1.42-9.01 2.03-6.92 8.53.19.58.11 1.42-.2 1.94-1.26 2.16-.83 3.83.65 5.85 1.3 1.78 1.87 4.14 2.59 6.3 6.42 19.08 12.78 38.16 19.28 57.61zm-30.22-46.15c-.09 3.91-.68 6.86-.9 9.77-1.39 18.54-7.18 36.24-9.84 54.53-1.38 9.5-3.34 18.92-5.37 28.31-1.65 7.6-1.58 15.53-4.87 22.83-2.22 4.92-6.84 5.64-10.89 6.1-3.59.41-6.47-2.39-8.24-6.03-2.76-5.66-3.9-11.82-4.75-17.81-3.86-27.17-16.13-51.52-24.85-77.1-.34 1.06-.19 2.08-.36 3.04-2.63 14.41-5.56 28.77-7.89 43.23-2.75 17.03-6.31 33.87-9.82 50.75-2.51 12.11-5.33 24.16-7.45 36.37-1.93 11.06-2.29 22.39-5.75 33.22-3.21 10.06-2.96 10.14 7.01 13.44.61.2 1.26.31 1.9.44 19.02 4.01 38.1 7.53 57.53 9.1 18.15 1.47 36.24 2.96 54.46.96 14.52-1.6 28.03-6.78 41.83-10.97 3.14-.95 3.65-2.21 2.49-5.36-7.75-21.05-14.11-42.55-20.78-63.96-6.57-21.05-16.16-41.07-21.22-62.69-4.66-19.95-13.04-38.76-18.73-58.42-.9-3.05-.99-6.41-3.51-9.75zm-31.46 88.58c5.88-20.18 8.31-39.92 12.3-59.32 2.54-12.33 4.06-24.87 6.12-37.3.92-5.59 3.62-10.88 2.93-16.71-.13-1.12 1.48-3.35-1.79-3.33-3.14.02-2.17 1.89-2.16 3.47.06 6.34-3.39 10.43-9.09 10.74-6.72.37-10.3-2.73-10.9-9.65-.13-1.54-.18-2.42-2.11-2.39-2.71.04-1.03 1.4-1.05 2.47-.04 3.77-1.31 7.29-4.51 9.3-3.5 2.19-7.08 3.28-11.35.33-3.62-2.5-6.06-5.41-7.4-10.21-1.24 5.6-2.38 10.36-1.49 15.1 3.69 19.57 10.15 38.28 17.78 56.63 5.37 12.86 9.41 26.17 12.72 40.87zM-1000 692.84c-6.26-.05-10.55-2.6-15.36-3.4-3.93-.65-5.41-4.2-3.98-8.27 12.07-34.36 22.27-69.33 33.66-103.91 11.48-34.88 23.83-69.47 35.76-104.2 1.78-5.19 3.35-10.44 5.05-15.74-.61-.13-1-.31-1.09-.21-8.66 8.92-18.01 17.12-27.27 25.4-10.95 9.79-19.94 21.48-30.74 31.38-10.41 9.54-21.31 18.51-33.95 25.12-8.89 4.65-17.38 3.28-25.58-1.49-3.62-2.11-3.62-5.71-2.13-9.14 1.69-3.89 5.57-4.81 8.71-3.38 3.41 1.56 7.06 1 10.36 2.51 2.27 1.03 4.12-1 5.8-2.07 13.01-8.33 24.05-18.95 34.64-30.1 11.57-12.18 23.78-23.68 36.33-34.88 8.17-7.29 16-15.01 23.13-23.4 2.16-2.54 1.18-3.46-1.11-4.28-22.18-8-41.98-19.96-59.99-35.14-25.1-21.17-43.84-46.76-52.95-78.42-8.06-28-5.93-55.59 6.48-82.35 7.95-17.15 18.6-32.3 32.04-45.33 14.73-14.28 31.73-25.19 51.98-30.17 7.36-1.81 14.81-3.11 22.81-2.57-3.51-9.41-9.19-17-16.01-23.85-2.15-2.16-4.92-4.27-2.55-7.73 2.4-3.5 5.78-2.91 9.25-1.7 4.04 1.41 7.42 3.87 9.91 7.15 6.01 7.93 11.92 15.98 14.68 25.78 1.28 4.53 5.56 2.85 9.41 5.05-4.27-11.64-6.32-22.83-13.74-31.83-1.66-2.02-1.92-4.46-1.71-7.03.21-2.55 2.08-3.78 3.88-4.74 1.54-.82 2.91.46 4.38 1.39 7.24 4.6 10.72 11.73 13.76 19.25 1.34 3.31 2.81 6.57 4.18 9.77 9.16-9.86 16.7-21.19 27.82-29.07 3.25-2.3 6.97-3.55 10.97-3.48 4.17.07 6.52 3.03 6.74 6.53.19 3.11-1.12 5.95-5.59 6.61-8.46 1.25-13.42 8.13-18.54 13.98-5.99 6.84-11.04 14.51-16.68 22.06 13.81-.12 27.25-1.9 40.76-1.11 22.57 1.32 44.9 4 65.87 13.14 26.94 11.74 44.05 32.05 51.43 60.45 4.25 16.35 5.67 32.84 4.26 49.87-2.31 27.85-9.9 53.94-22.87 78.5-14.36 27.19-34.5 49.01-61.83 63.59-6.19 3.3-12.81 5.94-20.64 8.01 12.11 6.73 22.39 14.4 32.46 22.32 17.23 13.55 34.23 27.41 51.32 41.14 1.8 1.45 3.8 2.7 5.35 4.38 2.95 3.21 5.74-.23 8.94.41-11.06-11.01-22.53-20.98-31.13-33.61-7.11-10.44-11.78-21.58-10.88-34.59.65-9.46 8.2-20.21 16.85-22.97 8.12-2.59 19.36.48 25.53 7.61.98 1.13 2.01 2.2 3.13 3.42 5.26-7.86 11.51-14.08 21.14-15.84 11.98-2.2 24.64 5.22 28.38 16.8 4.07 12.58.34 24.03-6.15 34.51-10.39 16.78-22.96 31.79-39.67 43.25 3.25 1.08 6.4 1.43 9.23 3.03 2.87 1.63 4.87 3.96 4.39 7.04-.53 3.43-3.64 5.28-6.9 5.29-5.33.01-10.42 1.01-15.61 2-7.62 1.44-13.69-2.97-19.53-6.85-13.19-8.75-24.6-19.79-36.89-29.7s-24.67-19.7-37.66-28.67c-1.45-1-2.01-.45-2.69.71-2.31 3.94-5.63 5.12-10.03 3.36.94 18.31 4.41 35.93 8.97 53.43 4.1 15.75 7.66 31.62 9.7 47.84 1.69 13.42 4.69 26.66 6.72 40.04 1.68 11.03 2.67 22.17 4.18 33.23 2.34 17.17 3.35 34.53 7.67 51.41 1.66 6.48-1.19 10.41-7.86 11.33-4.17.58-8.31 1.44-12.56 2.19 1.18 1.76 3.61 1.55 4.64 3.44 1.4 2.58 1.55 5.15-.45 7.23-2.7 2.81-6.17 2.76-9.6 1.44-5.66-2.17-10.7-5.45-15.28-9.34-3.5-2.97-7.45-4-11.82-3.98-6.78.03-13.05-2.78-19.77-3.42-3.96-.38-4.11-5.37-4.97-8.79-1.86-7.37-3.87-14.69-8.38-20.98-7.51-10.49-20.02-13.53-28.58.16-4.16 6.66-9.26 13.22-7.63 22.37.63 3.53-2.33 6.73-6.89 6.66-2.17-.03-4.36.24-6.49-.05-12.15-1.61-22.95 1.65-33 8.41-2.77 1.86-5.86 3.45-9.43 3.67-3.27.21-5.61-.44-7.02-3.89-1.36-3.33.02-5.45 2.22-7.4 1.55-1.42 3.36-2.5 6.31-4.59zm238.9-416.51c-.5-7.97-.98-17.47-2.98-26.87-5.09-23.85-17.88-41.89-39.88-52.65-17.23-8.42-36.08-11.05-54.91-13.04-16.16-1.7-32.4-2.69-48.6-4.11-5.41-.47-11.37.29-13.75-6.89-1.58-4.77-5.74-7.29-9.47-4.73-5.16 3.52-9.23 5.87-14.34.73-.06-.06-.31.06-.48.09-16.71 2.84-32.85 7.28-47.15 16.87-11.88 7.96-21.8 17.96-30.95 28.88-15.3 18.27-24.55 39.12-26.39 62.85-1.68 21.74 3.19 42.37 13.41 61.6 11.13 20.94 26.41 38.33 45.59 52.36 23.77 17.39 49.77 29.4 78.95 34.48 3.69.64 2.8-.63 2.94-2.53.63-8.32 5.7-11.01 12.71-6.72 4.37 2.67 8.87 5.15 12.62 8.73 3.72 3.55 7.56 3.1 11.27.06 3.18-2.61 6.73-4.55 10.35-6.41 2.94-1.52 6.01-1.47 7.96 1.31 1.81 2.57 3.28 2.44 6.03 1.53 23.4-7.76 40.82-23.44 54.73-42.87 21.54-30.07 31.32-64.27 32.34-102.67zm-148.11 166.4c-4.49.19-8.98-1.17-13.29-2.36-3.56-.99-3.78.77-4.4 2.76-4.34 13.87-8.34 27.85-12.94 41.64-10.87 32.56-22.4 64.9-32.92 97.57-9.96 30.92-18.9 62.16-29.5 92.88-1.41 4.09-.29 4.79 3.33 5.51 11.8 2.34 23.7 1.78 35.6 2 2.54.05 3.74-.89 4.09-3.1 1.13-7.05 4.35-13.19 8.22-19.03 14.58-22 38.08-22.68 53.76-1.53 4.87 6.57 7.89 14.03 10.28 21.82.39 1.27.03 3.3 2.79 3.89 14.4 3.09 28.8 2.57 43.28.92 2.17-.25 1.69-1.54 1.76-2.78.28-4.65-.81-9.16-1.57-13.69-1.41-8.39-3.2-16.73-4.37-25.15-1.91-13.69-3.29-27.45-5.21-41.14-1.73-12.3-4.05-24.51-5.8-36.81-2.03-14.25-3.91-28.53-7.64-42.45-5.77-21.55-10.5-43.25-11.44-65.65-.26-6.15-1.18-6.5-6.59-3.33-5.67 3.33-11.23 6.85-17 9.98-4.78 2.59-10.06.41-10.35-4.27-.36-5.74-.09-11.51-.09-17.68zm198.17-3.22c-.57-5.96-2.08-11.54-8.13-14.08-5.01-2.11-9.4-.5-13.58 3.1-4.65 4.02-6.71 9.42-9.47 14.52-1.31 2.41-2.45 4.83-6.09 4.77-3.73-.05-5.8-1.78-7.15-4.88-1.44-3.31-2.96-6.61-5.34-9.32-2.92-3.33-6.1-6.81-11.19-5.32-5.66 1.65-8.44 6.06-9.25 11.85-1.31 9.39 2.55 17.16 6.97 24.81 5.92 10.25 15.2 17.81 22.06 27.31 1.38 1.91 1.89.78 2.97 0 11.6-8.47 20.61-19.37 29.02-30.83 4.82-6.56 8.47-13.61 9.18-21.93z"/><path class="st0" d="M-568.19 400.75c20.68-.83 38.15-8.4 53.25-21.8 13.04-11.57 22.69-25.75 31.48-40.6 1.45-2.45 1.81-4.06-1.41-6.26-3.65-2.49-6.59-6.43-6.34-11.65.16-3.32 1.84-5.26 4.93-5.7 2.81-.4 6.23-1.26 7.04 3 .31 1.64 1.51 2.21 2.51 2.85 7.09 4.46 13.95 9.39 23.27 7.3 3.3-.74 6.19 1.9 7.1 4.87.98 3.22.65 6.79-2.91 9.01-4.93 3.08-10.19 2.48-15.11.68-3.04-1.11-3.88-.29-5.24 2.09-10.52 18.38-22.76 35.48-39.14 49.12-12.76 10.62-26.9 18.49-43.74 21.11-22.63 3.52-42.78-3.41-61.52-14.73-16.38-9.9-29.66-23.52-40.58-39.31-4.6-6.65-7.9-13.88-8.5-22.06-.14-1.92-.88-2.19-2.43-1.98-1.62.22-3.24-.2-4.89.52-4.67 2.03-6.35-1.37-7.32-4.76-1.02-3.59.83-6.11 4.5-6.7 4.54-.73 8.32-3.39 12.76-4.53 4.18-1.07 7.9-.16 11.59.84 3.82 1.03 4.28 8.75.43 11.26-2.98 1.95-2.74 3.66-1.68 6.27 5.03 12.4 13.21 22.45 22.75 31.64 7.85 7.57 16.35 14.17 25.82 19.52 10.48 5.91 21.62 9.66 33.38 10zm-30.03-130.92c.17-8.87 1.74-17.55 4.13-26.04 1.44-5.1 5.06-7.05 9.67-6.09 3.42.71 5.64 5.21 4.36 8.57-3.72 9.75-4.05 19.79-2.19 29.93.9 4.89-1.52 9.05-6.52 10.37-3.48.92-6.93-1.87-8.46-6.41-1.16-3.42-.87-6.86-.99-10.33zm-32.95-.34c1.25-10.48 1.86-21.11 7.28-30.62 2.44-4.28 6.15-6.09 9.89-4.09 3.78 2.01 4.44 5.42 2.74 9.12-4.28 9.32-4.87 19.19-4.92 29.22-.03 5.51-3.06 8.76-7.22 8.51-4.51-.27-7.67-3.99-7.77-9.15-.02-1 0-1.99 0-2.99zM-895.1 378.63c21.38.73 40.83-3.24 59.08-12.07 14.45-6.99 26.15-17.29 34.21-31.5 1.67-2.95 1.53-4.44-1.38-5.75-2.4-1.09-3.71-2.89-4.37-5.46-1-3.88 1.31-7.11 5.36-7.17 4.33-.07 7.59 2.47 11.04 4.51 2.9 1.72 5.01 4.33 9.31 3.79 3.84-.48 7.27 4.34 6.65 8.17-.63 3.92-2.77 6.78-7.24 6.5-2.32-.15-3.61.79-4.66 2.68-14.94 27.11-39.18 41.07-68.2 48.39-18.28 4.61-36.91 5.73-55.46 3.77-22.43-2.37-44.12-7.89-62.95-21.44-14.15-10.18-23.9-23.97-32.29-38.85-3.42-6.06-6.71-12.27-8.32-19.16-.18-.78-.89-1.6-.74-2.26 1.49-6.53-1.61-8.92-7.7-9.24-1.88-.1-3.61-1.39-5.09-2.8-3.7-3.54-2.79-7.6 2.01-9.48 1.83-.72 3.87-1.03 5.34-.39 4.88 2.13 8.59-.3 12.28-2.63 3.55-2.24 7.06-3.09 10.1.26 2.5 2.76.73 7.02-2.51 10.56-2.31 2.53-1.29 6.33-.47 9.43 3.22 12.15 9.79 22.66 17.05 32.67 15.51 21.36 37.42 31.59 62.91 35.63 9.02 1.4 18 2.17 26.04 1.84zm24-143.16c-.84 3.04.42 6.34 1.15 9.39 2.12 8.9-.68 17.15-2.26 25.57-.97 5.16-4.55 7.35-9.22 6.19-4.08-1.01-6.13-4.73-4.77-9.46 2.71-9.4 3.34-18.91 1.99-28.55-.26-1.84-.14-3.61.02-5.43.49-5.75 1.5-6.75 6.84-6.55 4.5.17 6.48 2.61 6.26 7-.03.51-.01 1.01-.01 1.84zm32.81 19.79c1.04 4.18-.79 8.3-.95 12.59-.12 3.41-4.65 6.4-7.93 5.72-5.03-1.05-8.28-4.68-6.67-8.4 3.9-8.99 2.4-17.8.09-26.7-.08-.32-.25-.62-.31-.94-1.05-5.63.65-10.29 4.35-10.63 5.28-.5 6.43 3.56 7.63 7.66 1.98 6.72 4.75 13.26 3.79 20.7z"/><g class="st1"><path class="st2" d="M394.13 147.56C442.32 66.94 497.07 22.6 552.47 6.82c71.87-20.48 150.11 7.63 196.88 62.56 45.17 53.06 77.84 144.05 61.01 232.55-13.19 69.36-62.88 135.95-110.21 196.68-44.68 57.3-108.89 93.49-158.97 136.1-88.67 75.5-152.62 215.18-170.34 194.45-17.73-20.72-54.43-121.02-138.45-197.77-47.06-43-95.47-92.36-137.34-149.97C51.52 421.54 22.16 361.95 9.2 293.81-7.6 205.3-3.42 125.74 41.74 72.68 88.51 17.75 161.11-.23 232.99 20.25c55.41 15.79 112.95 46.68 161.14 127.31z"/></g><path class="st0" d="M494.29 566.25c-11.27-2.97-22.72-4.66-33.15-10.35-7.17-3.91-6.99-3.72-5.1-12.91 2.17-10.53 3.8-21.18 5.77-31.75 2.17-11.65 4.46-23.29 6.72-34.92 2.29-11.79 4.23-23.65 6.11-35.53 2.83-17.88 5.25-35.86 9.5-53.46.44-1.81.67-3.23-1-4.63-1.95-1.64-2.76-4.31-2.36-6.74.47-2.86-1.06-3.26-2.76-3.74-17.7-4.99-32.21-15.22-44.03-30.21-12.64-16.03-19.87-34.54-23.34-55.08-2.11-12.52-2.81-25.06-1.26-37.61 2.48-20.11 8.78-38.8 20.85-54.62 10.08-13.22 22.89-22.98 37.06-30.68 2.52-1.37 5.27-2.32 7.6-4.73-1.82-.82-3.44-1.36-4.89-2.24-3.28-1.97-4.65-6.38-2.52-9.67 1.77-2.74.3-3.69-1.4-4.67-6.61-3.83-13.15-3.67-19.53.71-7.04 4.83-9.73 12.33-11.01 20.7-1.32 8.63-.96 17.73-5.21 25.59-5.25 9.7-16.1 15.96-26.28 10.86-7.04-3.53-11.15-13.41-8.95-21.43 1.38-5.02 5.03-6.77 9.72-5.35 2.12.64 2.6 2.37 2.83 3.76.22 1.35-.68 3.07-2.51 3.51-2.83.68-3.12 2.45-1.93 5.09 1.6 3.52 3.57 6.72 7.54 6.73 4.47.01 7.49-3.1 9.92-6.78 3.61-5.48 3.84-11.97 4.15-18.28.57-11.39 3.76-21.46 11.56-29.48 5.52-5.67 12.05-9.46 19.68-10.03 6.54-.49 12.54 2.06 17.98 5.99 3.64-9.02 8.48-9.82 14.1-2.19 1.98-3 4.6-5 8.07-4.61 2.3.26 4.03 1.81 4.85 4.52 11.97-12.24 26.34-19.4 42.3-22.71 16.76-3.48 33.05-.81 48.76 6.12 12.09 5.33 22.72 13.09 31.87 23.11 9.57 10.48 16.18 23.02 21.45 36.43 9.43 23.98 14.58 49.33 20.62 74.4 4.78 19.84 10.13 39.51 19.3 57.66 5.77 11.41 13.01 21.71 20.83 31.59 4.81 6.07 9.3 12.37 15.21 17.34 1.98 1.67 3.35 4.16 5.14 6.13 1.68 1.84 1.71 4.27.97 6.04-3.14 7.55-5.34 15.65-11.78 21.24-7.44 6.46-15.56 10.7-25.23 11.01-7.96.26-15.93-.52-23.87 1.42-7.89 1.93-12.69 6.99-15.53 14.82-2.18 6.01-3.72 12.33-7.45 17.61-4.55 6.45-10.67 9.72-18.05 10.36-11.46.99-21.77-3.34-31.37-9.14-7.92-4.78-15.33-4.49-23.15-.76-5.97 2.85-7.36 6.18-5.03 12.6 3.85 10.61 5.72 21.9 9.87 32.41 7.78 19.68 12.49 40.45 18.46 60.77.84 2.85 2.06 5.51 3.28 8.19 3 6.63-.41 12.15-7.21 11.78-3.76-.2-6.73 2.3-10.07 3.48-9.31 3.27-18.76 5.3-28.54 5.77-8.04.38-15.95 1.42-22.89 6.51-1.3.95-3 1.67-4.54 1.73-2.86.11-4.33-1.7-4.72-4.86-.14-1.11 1.15-3.11-.38-3.22-1.94-.13-3.66-1.52-5.81-.66-5.7 2.29-11.33 4.71-16.81 7.58-4.17 2.18-5.73 1.59-7.37-2.17-1.39-3.19-.48-4.89 3.51-6.88.54-.26 1.55-.22 1.45-1.47zm-20.62-399.67c-8.96 6.47-17.61 13.19-25.45 20.92-17.56 17.33-27.09 39.2-29.57 64.48-1.23 12.51-.6 25.07 1.95 37.51 4.43 21.56 13.17 40.31 29.08 54.83 17.57 16.04 38.46 21.29 60.75 21.44 7.75.05 15.55-1.01 23.28-2.63 18.06-3.79 35.02-10.53 50.56-21.04 13.94-9.43 25.83-21.28 33.53-37.24 6.35-13.19 9.26-27.1 7.98-42.16-.92-10.83-3.25-21.1-7.63-30.76-8.28-18.26-20.16-33.37-35.59-45.17-4.9-3.75-9.9-7.36-16.16-10.07 1.88 3.06 3.52 5.35 4.78 7.86 6.48 12.83 9.9 25.88 1 39.08-5.48 8.12-13.24 12.23-22.47 11.92-5.99-.2-11.75-2.33-16.98-5.84-8.98-6.02-13.85-17-11.03-27.43 2.46-9.12 9.01-13.07 17.16-14.36 6.33-1 12.01 1 16.71 5.68 2.24 2.24 3.25 5.24 2.59 8.52-.97 4.83-7.96 10.5-12.72 10.73-1.99.1-3.6-.31-4.08-2.57-.45-2.11.1-3.94 2-5.09 1.12-.68 2.19-1.45 3.32-2.11 1.15-.68 2.46-1.41 2.37-2.96-.11-1.83-1.85-1.96-3.07-2.55-1.87-.91-3.86-.93-5.82-.74-6.42.6-12.43 6.79-10.29 15.01 1.7 6.54 11.15 14.99 19.66 14.34 11.5-.88 20.1-10.35 18.18-22.81-2.74-17.75-18.13-32-33.51-34.76-7.73-1.39-15.66-.52-23.39-2.22-1.12-.25-2.58-.73-3.79.92-4.85 6.65-13.11 7.15-17.16-.8-5.34 7.5-12.1 8.05-16.19.07zm86.9 265.08c2.94-2.71 5.9-4.67 9.05-6.27 7.37-3.75 14.69-5.22 22.73-1.59 7.3 3.3 14.34 7.37 22.03 9.68 11.86 3.57 19.79-.17 24.66-11.67 1.38-3.25 2.47-6.65 3.6-10.02 3.45-10.26 9.84-17.15 19.72-20.09 3.82-1.14 7.7-1.96 11.68-1.99 6.5-.06 13.07.6 19.47-.25 10.76-1.44 16.6-9.98 21.62-19.28.41-.76.19-1.23.12-1.96-.28-3.2-2.94-3.97-4.65-5.66-4.96-4.9-8.03-11.45-12.63-16.64-9.78-11.04-17.63-23.5-24.17-37.01-9.32-19.26-14.16-40.12-19.09-60.95-5.52-23.29-10.12-46.88-19.2-69.01-10.02-24.43-25.02-43.94-48.56-54.41-15.15-6.74-30.81-7.46-46.73-3.42-11.66 2.96-21.98 8.67-31.12 16.97-1.37 1.24-1.19 1.92-.06 3.25 3.11 3.69 3.17 7.09.37 10.69-.78 1-1.81 1.77-2.82 2.73.52.04.87.13 1.22.09 12.53-1.5 25.1-1.65 37.45 1 21.72 4.65 40.47 15.88 56.65 31.96 11.65 11.58 21.01 25.14 27.59 40.73 8.07 19.11 10.52 39.02 5.82 59.51-5.54 24.13-18.65 42.87-36.89 57.74-14.64 11.93-31.26 19.44-48.78 24.7-3.61 1.08-6.39 1.55-4.91 6.51.13.44.07 1.08-.14 1.48-.9 1.65-.59 2.92.46 4.46.92 1.36 1.33 3.16 1.84 4.81 4.55 14.53 9.06 29.08 13.67 43.91zm-21.43-35.2c-.07 2.98-.48 5.23-.64 7.45-.98 14.13-5.09 27.64-6.98 41.58-.98 7.24-2.37 14.43-3.81 21.59-1.17 5.79-1.12 11.84-3.45 17.41-1.57 3.76-4.85 4.3-7.73 4.65-2.55.31-4.59-1.82-5.85-4.6-1.95-4.32-2.76-9.01-3.37-13.58-2.74-20.72-11.44-39.29-17.63-58.79-.24.81-.13 1.59-.26 2.32-1.86 10.99-3.94 21.94-5.6 32.97-1.95 12.98-4.48 25.83-6.96 38.7-1.78 9.23-3.78 18.42-5.29 27.73-1.37 8.44-1.63 17.07-4.08 25.34-2.27 7.67-2.1 7.73 4.97 10.25.44.16.9.23 1.35.34 13.49 3.06 27.02 5.74 40.8 6.94 12.88 1.12 25.7 2.26 38.63.73 10.3-1.22 19.88-5.17 29.67-8.37 2.23-.73 2.59-1.68 1.77-4.09-5.5-16.05-10.01-32.45-14.74-48.77-4.66-16.05-11.47-31.32-15.05-47.81-3.31-15.21-9.25-29.56-13.29-44.55-.61-2.32-.67-4.89-2.46-7.44zm-22.31 67.55c4.17-15.39 5.9-30.44 8.73-45.23 1.8-9.4 2.88-18.96 4.34-28.45.66-4.26 2.57-8.3 2.08-12.74-.09-.85 1.05-2.55-1.27-2.54-2.23.01-1.54 1.44-1.53 2.65.04 4.84-2.41 7.95-6.45 8.19-4.77.28-7.3-2.08-7.73-7.36-.09-1.17-.12-1.85-1.49-1.83-1.92.03-.73 1.07-.74 1.88-.03 2.87-.93 5.56-3.2 7.09-2.48 1.67-5.02 2.5-8.05.25-2.57-1.91-4.3-4.13-5.25-7.79-.88 4.27-1.69 7.9-1.05 11.52 2.62 14.92 7.2 29.19 12.61 43.19 3.78 9.81 6.65 19.96 9 31.17zm-319.49 88.25c-4.44-.04-7.48-1.99-10.9-2.59-2.79-.49-3.84-3.2-2.82-6.3 8.56-26.2 15.8-52.87 23.88-79.24 8.14-26.6 16.9-52.98 25.36-79.46 1.26-3.95 2.38-7.96 3.58-12-.43-.1-.71-.24-.78-.16-6.15 6.8-12.77 13.06-19.34 19.37-7.76 7.46-14.14 16.38-21.8 23.93-7.39 7.27-15.11 14.11-24.08 19.15-6.31 3.55-12.33 2.5-18.15-1.14-2.57-1.61-2.56-4.36-1.51-6.97 1.2-2.97 3.95-3.67 6.18-2.57 2.42 1.19 5.01.77 7.35 1.91 1.61.79 2.92-.76 4.11-1.58 9.23-6.35 17.06-14.45 24.57-22.96 8.21-9.29 16.87-18.06 25.77-26.59 5.8-5.56 11.35-11.44 16.4-17.85 1.53-1.94.84-2.64-.79-3.27-15.73-6.1-29.78-15.22-42.55-26.8-17.81-16.14-31.1-35.65-37.56-59.8-5.71-21.35-4.2-42.39 4.6-62.8 5.64-13.08 13.19-24.63 22.73-34.57 10.45-10.89 22.51-19.21 36.87-23.01 5.22-1.38 10.51-2.37 16.18-1.96-2.49-7.17-6.52-12.97-11.35-18.19-1.53-1.65-3.49-3.25-1.81-5.89 1.7-2.67 4.1-2.22 6.56-1.3 2.86 1.07 5.27 2.95 7.03 5.45 4.26 6.04 8.45 12.18 10.41 19.66.91 3.45 3.95 2.17 6.67 3.85-3.03-8.88-4.48-17.41-9.74-24.27-1.18-1.54-1.36-3.4-1.22-5.36.15-1.94 1.48-2.88 2.76-3.61 1.09-.62 2.06.35 3.11 1.06 5.13 3.5 7.6 8.94 9.76 14.68.95 2.52 1.99 5.01 2.96 7.45 6.5-7.52 11.84-16.15 19.73-22.17 2.31-1.76 4.94-2.7 7.78-2.65 2.96.05 4.63 2.31 4.78 4.98.14 2.37-.8 4.54-3.96 5.04-6 .96-9.52 6.2-13.15 10.66-4.25 5.22-7.83 11.06-11.83 16.82 9.79-.09 19.33-1.45 28.91-.85 16.01 1.01 31.85 3.05 46.72 10.02 19.11 8.95 31.25 24.44 36.48 46.09 3.01 12.47 4.02 25.05 3.02 38.03-1.63 21.23-7.02 41.13-16.22 59.86-10.18 20.73-24.47 37.37-43.86 48.49-4.39 2.52-9.09 4.53-14.64 6.11 8.59 5.13 15.88 10.98 23.03 17.02 12.22 10.33 24.28 20.9 36.4 31.38 1.28 1.1 2.7 2.06 3.79 3.34 2.09 2.45 4.07-.18 6.34.31-7.84-8.4-15.98-16-22.08-25.63-5.04-7.96-8.36-16.45-7.72-26.38.46-7.21 5.82-15.41 11.95-17.52 5.76-1.98 13.73.37 18.11 5.8.69.86 1.43 1.68 2.22 2.61 3.73-5.99 8.16-10.73 15-12.08 8.5-1.68 17.48 3.98 20.13 12.81 2.89 9.6.24 18.33-4.36 26.31-7.37 12.79-16.28 24.24-28.14 32.98 2.3.82 4.54 1.09 6.54 2.31 2.04 1.24 3.45 3.02 3.11 5.36-.38 2.62-2.58 4.03-4.9 4.03-3.78.01-7.39.77-11.07 1.52-5.4 1.1-9.71-2.27-13.86-5.23-9.36-6.68-17.45-15.09-26.17-22.65-8.72-7.56-17.5-15.02-26.72-21.87-1.03-.76-1.42-.35-1.91.54-1.64 3.01-3.99 3.91-7.12 2.56.67 13.96 3.13 27.4 6.36 40.74 2.91 12.01 5.43 24.11 6.88 36.48 1.2 10.23 3.33 20.33 4.77 30.53 1.19 8.41 1.89 16.9 2.96 25.34 1.66 13.09 2.38 26.33 5.44 39.2 1.18 4.94-.84 7.93-5.58 8.64-2.96.44-5.89 1.1-8.91 1.67.84 1.34 2.56 1.19 3.29 2.62 1 1.96 1.1 3.93-.32 5.51-1.91 2.15-4.37 2.1-6.81 1.1-4.01-1.65-7.59-4.16-10.84-7.12-2.48-2.26-5.29-3.05-8.38-3.04-4.81.03-9.25-2.12-14.03-2.61-2.81-.29-2.91-4.1-3.53-6.71-1.32-5.62-2.75-11.2-5.95-16-5.33-8-14.2-10.32-20.28.12-2.95 5.08-6.57 10.08-5.41 17.06.45 2.7-1.65 5.13-4.89 5.08-1.54-.03-3.1.18-4.61-.03-8.62-1.22-16.28 1.26-23.41 6.41-1.96 1.42-4.15 2.63-6.69 2.8-2.32.16-3.98-.34-4.98-2.97-.96-2.54.01-4.16 1.58-5.64 1.19-.98 2.48-1.81 4.57-3.4zM366.8 234.65c-.35-6.08-.69-13.32-2.12-20.49-3.61-18.18-12.68-31.95-28.29-40.15-12.22-6.42-25.59-8.43-38.95-9.94-11.47-1.3-22.98-2.05-34.47-3.13-3.84-.36-8.07.22-9.75-5.25-1.12-3.64-4.07-5.56-6.72-3.61-3.66 2.68-6.55 4.47-10.17.56-.05-.05-.22.05-.34.07-11.85 2.17-23.3 5.55-33.44 12.87-8.42 6.07-15.47 13.69-21.95 22.02-10.85 13.93-17.41 29.83-18.72 47.92-1.19 16.58 2.26 32.31 9.51 46.98 7.89 15.97 18.73 29.23 32.33 39.93 16.86 13.26 35.3 22.42 56 26.29 2.62.49 1.98-.48 2.09-1.93.45-6.34 4.04-8.39 9.01-5.12 3.1 2.04 6.29 3.92 8.95 6.65 2.64 2.71 5.36 2.37 7.99.05 2.25-1.99 4.78-3.47 7.34-4.89 2.09-1.16 4.26-1.12 5.65 1 1.28 1.96 2.33 1.86 4.28 1.17 16.6-5.92 28.95-17.88 38.82-32.69 15.29-22.95 22.22-49.04 22.95-78.31zM261.74 361.53c-3.18.15-6.37-.89-9.43-1.8-2.53-.75-2.68.59-3.12 2.1-3.08 10.58-5.92 21.24-9.18 31.75-7.71 24.83-15.89 49.49-23.35 74.4-7.06 23.58-13.41 47.4-20.92 70.82-1 3.12-.2 3.66 2.36 4.2 8.37 1.78 16.81 1.36 25.25 1.52 1.8.03 2.65-.68 2.9-2.36.8-5.38 3.09-10.06 5.83-14.51 10.34-16.78 27.01-17.29 38.13-1.17 3.46 5.01 5.6 10.7 7.29 16.64.27.96.02 2.52 1.98 2.97 10.22 2.35 20.43 1.96 30.7.7 1.54-.19 1.2-1.17 1.25-2.12.2-3.55-.57-6.98-1.11-10.44-1-6.4-2.27-12.76-3.1-19.18-1.36-10.44-2.33-20.94-3.69-31.37-1.22-9.38-2.87-18.69-4.12-28.07-1.44-10.87-2.77-21.76-5.42-32.37-4.1-16.44-7.45-32.98-8.12-50.06-.18-4.69-.84-4.96-4.68-2.54-4.02 2.54-7.96 5.23-12.06 7.61-3.39 1.97-7.14.31-7.34-3.26-.24-4.35-.05-8.75-.05-13.46zm140.56-2.45c-.4-4.54-1.47-8.8-5.76-10.74-3.56-1.61-6.67-.38-9.63 2.37-3.3 3.06-4.76 7.18-6.72 11.07-.93 1.84-1.74 3.68-4.32 3.64-2.64-.04-4.11-1.35-5.07-3.72-1.02-2.52-2.1-5.04-3.79-7.11-2.07-2.54-4.33-5.19-7.94-4.06-4.01 1.26-5.99 4.62-6.56 9.04-.93 7.16 1.81 13.09 4.94 18.92 4.2 7.81 10.78 13.58 15.65 20.82.98 1.45 1.34.6 2.11 0 8.23-6.46 14.62-14.77 20.58-23.51 3.42-5 6.01-10.38 6.51-16.72z"/><path class="st0" d="M503.63 329.52c14.67-.63 27.06-6.41 37.77-16.62 9.25-8.82 16.09-19.63 22.33-30.96 1.03-1.87 1.28-3.1-1-4.78-2.59-1.9-4.67-4.9-4.5-8.89.11-2.53 1.31-4.01 3.5-4.35 1.99-.31 4.42-.96 4.99 2.29.22 1.25 1.07 1.69 1.78 2.17 5.03 3.4 9.89 7.16 16.5 5.56 2.34-.56 4.39 1.45 5.04 3.71.7 2.45.46 5.18-2.06 6.87-3.5 2.35-7.23 1.89-10.72.52-2.15-.85-2.75-.22-3.72 1.59-7.46 14.01-16.14 27.05-27.76 37.46-9.05 8.1-19.08 14.1-31.02 16.1-16.05 2.68-30.34-2.6-43.64-11.24-11.62-7.55-21.04-17.94-28.78-29.98-3.26-5.07-5.6-10.58-6.03-16.82-.1-1.46-.63-1.67-1.72-1.51-1.15.17-2.29-.15-3.47.4-3.31 1.55-4.5-1.04-5.19-3.63-.72-2.74.59-4.66 3.2-5.11 3.22-.56 5.9-2.59 9.05-3.46 2.96-.82 5.61-.12 8.22.64 2.71.79 3.04 6.67.31 8.59-2.12 1.49-1.94 2.79-1.19 4.78 3.57 9.45 9.37 17.12 16.14 24.13 5.57 5.77 11.59 10.81 18.31 14.89 7.42 4.53 15.32 7.39 23.66 7.65zm-21.3-99.83c.12-6.76 1.23-13.38 2.93-19.86 1.02-3.89 3.59-5.37 6.86-4.64 2.43.54 4 3.97 3.09 6.53-2.64 7.43-2.88 15.09-1.56 22.82.64 3.73-1.08 6.9-4.63 7.91-2.47.7-4.91-1.43-6-4.89-.81-2.6-.6-5.23-.69-7.87zm-23.37-.26c.89-7.99 1.32-16.1 5.17-23.35 1.73-3.26 4.36-4.64 7.02-3.12 2.68 1.53 3.15 4.13 1.94 6.95-3.04 7.11-3.46 14.63-3.49 22.28-.02 4.2-2.17 6.68-5.12 6.49-3.2-.21-5.44-3.04-5.51-6.98-.02-.75-.01-1.51-.01-2.27zm-187.22 83.23c15.17.56 28.96-2.47 41.9-9.21 10.25-5.33 18.55-13.18 24.26-24.02 1.19-2.25 1.08-3.39-.98-4.39-1.71-.83-2.63-2.2-3.1-4.16-.71-2.96.93-5.42 3.8-5.47 3.07-.05 5.38 1.88 7.83 3.44 2.06 1.31 3.55 3.3 6.6 2.89 2.72-.37 5.15 3.31 4.71 6.23-.45 2.99-1.97 5.17-5.13 4.95-1.65-.11-2.56.6-3.3 2.04-10.6 20.67-27.79 31.32-48.38 36.9-12.96 3.52-26.18 4.37-39.34 2.87-15.91-1.81-31.29-6.01-44.65-16.35-10.04-7.77-16.95-18.28-22.9-29.63-2.42-4.62-4.76-9.36-5.9-14.61-.13-.59-.63-1.22-.53-1.72 1.06-4.98-1.14-6.8-5.46-7.05-1.33-.08-2.56-1.06-3.61-2.14-2.62-2.7-1.98-5.79 1.43-7.23 1.3-.55 2.74-.79 3.79-.3 3.46 1.63 6.09-.23 8.71-2.01 2.52-1.71 5.01-2.36 7.17.2 1.77 2.1.52 5.35-1.78 8.05-1.64 1.93-.92 4.82-.33 7.19 2.28 9.26 6.94 17.28 12.09 24.91 11 16.29 26.55 24.09 44.62 27.17 6.41 1.11 12.78 1.7 18.48 1.45zm17.03-109.17c-.59 2.32.3 4.83.82 7.16 1.51 6.79-.48 13.08-1.6 19.5-.69 3.93-3.23 5.6-6.54 4.72-2.9-.77-4.35-3.61-3.38-7.21 1.92-7.17 2.37-14.42 1.41-21.77-.18-1.41-.1-2.75.01-4.14.35-4.39 1.07-5.15 4.85-4.99 3.19.13 4.6 1.99 4.44 5.34-.02.37-.01.75-.01 1.39zm23.28 15.08c.73 3.18-.56 6.33-.67 9.6-.09 2.6-3.3 4.88-5.63 4.36-3.56-.8-5.87-3.57-4.73-6.4 2.76-6.86 1.7-13.57.06-20.36-.06-.24-.18-.47-.22-.72-.74-4.3.46-7.84 3.09-8.11 3.74-.38 4.56 2.72 5.41 5.84 1.4 5.14 3.37 10.13 2.69 15.79z"/><g class="st1"><path class="st2" d="M1381.56 147.56C1429.75 66.94 1484.5 22.6 1539.9 6.82c71.87-20.48 150.11 7.63 196.88 62.56 45.17 53.06 77.84 144.05 61.01 232.55-13.19 69.36-62.88 135.95-110.21 196.68-44.68 57.3-108.89 93.49-158.97 136.1-88.67 75.5-152.62 215.18-170.34 194.45-17.73-20.72-54.43-121.02-138.45-197.77-47.06-43-95.47-92.36-137.34-149.97-43.53-59.89-72.88-119.48-85.84-187.61-16.8-88.51-12.62-168.07 32.54-221.13 46.76-54.93 119.37-72.91 191.25-52.42 55.41 15.78 112.95 46.67 161.13 127.3z"/></g><path class="st0" d="M1484.52 629.65c-12.25-3.22-24.69-5.06-36.03-11.25-7.79-4.25-7.6-4.04-5.55-14.03 2.35-11.44 4.13-23.02 6.27-34.51 2.36-12.67 4.84-25.31 7.3-37.95 2.49-12.82 4.6-25.7 6.65-38.61 3.08-19.44 5.7-38.98 10.33-58.1.48-1.97.73-3.51-1.08-5.03-2.12-1.78-3-4.68-2.57-7.32.51-3.11-1.16-3.54-3.01-4.07-19.23-5.42-35.01-16.55-47.86-32.83-13.74-17.42-21.6-37.55-25.37-59.86-2.3-13.61-3.06-27.24-1.37-40.87 2.7-21.86 9.55-42.17 22.66-59.37 10.96-14.37 24.88-24.98 40.28-33.35 2.74-1.49 5.73-2.52 8.26-5.14-1.98-.89-3.74-1.48-5.31-2.43-3.56-2.14-5.05-6.94-2.74-10.52 1.92-2.98.32-4.01-1.52-5.08-7.18-4.16-14.29-3.99-21.22.77-7.65 5.25-10.57 13.4-11.97 22.5-1.44 9.38-1.04 19.27-5.66 27.81-5.7 10.54-17.5 17.35-28.56 11.8-7.65-3.83-12.12-14.58-9.72-23.29 1.5-5.45 5.46-7.35 10.57-5.82 2.3.69 2.83 2.58 3.08 4.09.24 1.47-.74 3.34-2.73 3.82-3.08.74-3.4 2.66-2.1 5.53 1.74 3.83 3.88 7.3 8.2 7.31 4.85.01 8.14-3.37 10.78-7.37 3.93-5.95 4.17-13.01 4.51-19.87.62-12.37 4.08-23.33 12.57-32.04 6-6.16 13.1-10.28 21.39-10.9 7.1-.53 13.62 2.24 19.54 6.51 3.96-9.8 9.22-10.67 15.33-2.38 2.15-3.26 5-5.43 8.77-5.01 2.5.28 4.38 1.97 5.27 4.91 13.01-13.31 28.63-21.08 45.97-24.69 18.22-3.79 35.92-.88 52.99 6.65 13.14 5.79 24.69 14.23 34.64 25.12 10.41 11.39 17.59 25.02 23.32 39.6 10.25 26.07 15.84 53.62 22.42 80.87 5.2 21.56 11.01 42.94 20.98 62.67 6.27 12.4 14.14 23.59 22.64 34.33 5.22 6.59 10.11 13.45 16.53 18.85 2.16 1.81 3.64 4.53 5.59 6.66 1.82 2 1.86 4.64 1.06 6.57-3.41 8.2-5.81 17.01-12.81 23.08-8.09 7.02-16.91 11.63-27.43 11.97-8.66.28-17.31-.56-25.94 1.55-8.57 2.1-13.79 7.6-16.88 16.11-2.37 6.53-4.05 13.4-8.1 19.14-4.95 7.01-11.59 10.56-19.62 11.26-12.45 1.08-23.66-3.64-34.1-9.94-8.61-5.2-16.66-4.88-25.16-.82-6.49 3.1-8 6.71-5.46 13.69 4.19 11.53 6.22 23.81 10.73 35.23 8.46 21.39 13.57 43.97 20.07 66.05.91 3.09 2.24 5.99 3.56 8.9 3.26 7.21-.45 13.2-7.83 12.8-4.09-.22-7.31 2.5-10.94 3.78-10.12 3.55-20.39 5.76-31.02 6.27-8.74.42-17.34 1.55-24.88 7.08-1.41 1.03-3.26 1.82-4.94 1.88-3.11.12-4.7-1.85-5.13-5.28-.15-1.21 1.25-3.38-.42-3.5-2.1-.15-3.98-1.65-6.31-.71-6.2 2.48-12.32 5.12-18.27 8.24-4.54 2.37-6.23 1.73-8.01-2.36-1.51-3.47-.52-5.31 3.82-7.48.55-.3 1.66-.25 1.54-1.62zm-22.41-434.39c-9.74 7.03-19.14 14.33-27.66 22.74-19.09 18.84-29.44 42.61-32.14 70.08-1.34 13.6-.65 27.25 2.12 40.77 4.81 23.44 14.32 43.81 31.61 59.59 19.1 17.43 41.81 23.14 66.02 23.31 8.43.06 16.91-1.1 25.31-2.86 19.63-4.12 38.06-11.44 54.95-22.87 15.15-10.25 28.08-23.13 36.44-40.48 6.91-14.33 10.06-29.45 8.67-45.82-1-11.77-3.54-22.93-8.29-33.43-9-19.85-21.91-36.27-38.68-49.1-5.33-4.08-10.76-8-17.56-10.94 2.04 3.33 3.82 5.81 5.2 8.54 7.04 13.94 10.76 28.13 1.08 42.48-5.95 8.83-14.39 13.29-24.43 12.96-6.51-.22-12.77-2.54-18.46-6.35-9.76-6.55-15.05-18.48-11.99-29.81 2.68-9.91 9.79-14.2 18.65-15.61 6.88-1.09 13.06 1.09 18.16 6.18 2.44 2.43 3.53 5.7 2.81 9.26-1.06 5.25-8.65 11.41-13.83 11.66-2.16.1-3.91-.33-4.44-2.79-.49-2.29.11-4.28 2.18-5.53 1.22-.73 2.38-1.58 3.61-2.3 1.25-.74 2.68-1.53 2.57-3.21-.12-1.98-2.01-2.13-3.34-2.78-2.03-.99-4.2-1.01-6.33-.81-6.97.65-13.51 7.38-11.19 16.31 1.84 7.11 12.12 16.29 21.37 15.58 12.5-.96 21.85-11.25 19.76-24.79-2.98-19.29-19.71-34.78-36.42-37.78-8.41-1.51-17.02-.56-25.43-2.41-1.22-.27-2.8-.8-4.12 1-5.27 7.22-14.25 7.77-18.65-.87-5.75 8.16-13.1 8.76-17.55.08zm94.46 288.11c3.19-2.95 6.41-5.07 9.84-6.82 8.01-4.07 15.96-5.68 24.7-1.73 7.94 3.59 15.58 8.01 23.94 10.52 12.89 3.88 21.51-.19 26.81-12.68 1.5-3.54 2.69-7.23 3.92-10.89 3.75-11.15 10.7-18.64 21.44-21.84 4.16-1.24 8.37-2.13 12.69-2.17 7.06-.06 14.21.66 21.17-.28 11.69-1.57 18.05-10.85 23.49-20.96.44-.82.21-1.34.14-2.14-.31-3.48-3.19-4.31-5.05-6.15-5.39-5.33-8.72-12.44-13.73-18.08-10.63-12-19.16-25.54-26.26-40.22-10.13-20.94-15.39-43.61-20.75-66.24-6-25.31-11-50.96-20.87-75-10.89-26.55-27.2-47.76-52.78-59.14-16.47-7.33-33.48-8.11-50.78-3.71-12.67 3.22-23.89 9.43-33.83 18.44-1.49 1.35-1.29 2.08-.07 3.53 3.38 4.02 3.45 7.7.4 11.62-.84 1.09-1.97 1.92-3.07 2.96.56.05.95.14 1.32.1 13.61-1.63 27.28-1.79 40.7 1.09 23.61 5.06 43.99 17.26 61.57 34.73 12.66 12.59 22.83 27.32 29.98 44.27 8.77 20.77 11.43 42.41 6.32 64.68-6.02 26.23-20.27 46.59-40.09 62.75-15.92 12.97-33.97 21.13-53.02 26.85-3.92 1.18-6.94 1.68-5.33 7.07.14.48.08 1.18-.15 1.61-.97 1.79-.64 3.17.5 4.85 1 1.48 1.44 3.43 2 5.22 4.93 15.82 9.84 31.64 14.85 47.76zm-23.3-38.25c-.07 3.24-.52 5.69-.69 8.1-1.07 15.36-5.53 30.04-7.59 45.2-1.07 7.87-2.57 15.68-4.14 23.46-1.27 6.3-1.22 12.87-3.75 18.92-1.71 4.08-5.27 4.67-8.4 5.06-2.77.34-4.99-1.98-6.35-5-2.12-4.69-3-9.8-3.66-14.76-2.98-22.51-12.44-42.7-19.16-63.9-.26.88-.14 1.73-.28 2.52-2.02 11.94-4.28 23.85-6.08 35.83-2.12 14.11-4.87 28.07-7.57 42.06-1.94 10.04-4.11 20.02-5.75 30.14-1.48 9.17-1.77 18.56-4.43 27.54-2.47 8.34-2.28 8.4 5.4 11.14.47.17.97.25 1.46.36 14.66 3.33 29.37 6.24 44.35 7.54 13.99 1.22 27.94 2.45 41.98.79 11.2-1.32 21.61-5.62 32.25-9.09 2.42-.79 2.82-1.83 1.92-4.45-5.97-17.44-10.88-35.27-16.02-53.01-5.06-17.45-12.46-34.04-16.36-51.96-3.59-16.53-10.05-32.13-14.44-48.42-.68-2.51-.75-5.3-2.69-8.07zm-24.25 73.41c4.53-16.72 6.41-33.08 9.48-49.16 1.96-10.22 3.13-20.61 4.72-30.92.71-4.63 2.79-9.02 2.26-13.85-.1-.93 1.14-2.77-1.38-2.76-2.42.01-1.68 1.57-1.67 2.88.04 5.26-2.62 8.65-7.01 8.9-5.18.3-7.94-2.26-8.4-8-.1-1.27-.14-2.01-1.62-1.98-2.09.03-.8 1.16-.81 2.05-.03 3.12-1.01 6.05-3.48 7.71-2.7 1.82-5.45 2.72-8.75.27-2.79-2.07-4.67-4.48-5.7-8.47-.96 4.64-1.84 8.59-1.15 12.52 2.84 16.22 7.83 31.72 13.7 46.94 4.14 10.66 7.26 21.69 9.81 33.87zm-347.25 95.91c-4.82-.04-8.13-2.16-11.84-2.81-3.03-.54-4.17-3.48-3.07-6.85 9.31-28.48 17.17-57.46 25.95-86.12 8.85-28.91 18.37-57.58 27.57-86.36 1.37-4.3 2.59-8.65 3.89-13.04-.47-.1-.77-.26-.84-.18-6.68 7.4-13.88 14.19-21.02 21.05-8.44 8.11-15.37 17.8-23.7 26-8.03 7.91-16.43 15.34-26.17 20.82-6.86 3.85-13.4 2.72-19.72-1.23-2.79-1.75-2.79-4.73-1.64-7.58 1.3-3.22 4.3-3.99 6.71-2.8 2.63 1.29 5.44.83 7.99 2.08 1.75.85 3.17-.83 4.47-1.72 10.03-6.9 18.54-15.7 26.71-24.95 8.92-10.09 18.34-19.63 28.01-28.9 6.3-6.04 12.34-12.44 17.83-19.4 1.66-2.11.91-2.86-.86-3.55-17.1-6.63-32.36-16.54-46.24-29.12-19.35-17.54-33.8-38.75-40.82-65-6.21-23.21-4.57-46.07 5-68.26 6.13-14.22 14.34-26.77 24.7-37.57 11.36-11.84 24.46-20.88 40.07-25.01 5.67-1.5 11.42-2.58 17.58-2.13-2.71-7.8-7.09-14.09-12.34-19.77-1.66-1.79-3.79-3.54-1.96-6.4 1.85-2.9 4.46-2.41 7.13-1.41 3.11 1.17 5.72 3.21 7.64 5.93 4.63 6.57 9.19 13.24 11.32 21.36.98 3.75 4.29 2.36 7.25 4.18-3.29-9.65-4.87-18.92-10.59-26.38-1.28-1.67-1.48-3.69-1.32-5.83.16-2.11 1.6-3.13 2.99-3.93 1.19-.68 2.24.38 3.38 1.16 5.58 3.81 8.26 9.72 10.61 15.96 1.03 2.74 2.16 5.44 3.22 8.09 7.06-8.17 12.87-17.56 21.45-24.09 2.51-1.91 5.37-2.94 8.45-2.88 3.21.06 5.03 2.51 5.2 5.41.15 2.58-.87 4.93-4.31 5.48-6.52 1.04-10.34 6.74-14.3 11.59-4.62 5.67-8.51 12.03-12.86 18.28 10.64-.1 21.01-1.58 31.42-.92 17.4 1.09 34.61 3.31 50.78 10.89 20.77 9.73 33.96 26.56 39.65 50.1 3.28 13.55 4.37 27.22 3.28 41.34-1.78 23.08-7.63 44.71-17.63 65.06-11.07 22.54-26.59 40.62-47.67 52.71-4.78 2.74-9.88 4.92-15.91 6.64 9.34 5.58 17.26 11.94 25.03 18.5 13.29 11.23 26.39 22.72 39.56 34.1 1.39 1.2 2.93 2.24 4.12 3.63 2.28 2.66 4.43-.19 6.9.34-8.52-9.13-17.37-17.39-24-27.85-5.48-8.65-9.08-17.88-8.39-28.67.5-7.84 6.32-16.75 12.99-19.04 6.26-2.15 14.92.4 19.68 6.3.75.93 1.55 1.83 2.41 2.84 4.05-6.51 8.87-11.67 16.3-13.13 9.24-1.82 19 4.33 21.88 13.92 3.14 10.43.26 19.92-4.74 28.6-8.01 13.91-17.7 26.35-30.58 35.84 2.5.9 4.94 1.18 7.11 2.51 2.21 1.35 3.75 3.28 3.38 5.83-.41 2.84-2.81 4.38-5.32 4.38-4.11.01-8.03.84-12.03 1.65-5.87 1.2-10.55-2.46-15.06-5.68-10.17-7.26-18.97-16.4-28.44-24.62-9.47-8.22-19.02-16.32-29.04-23.76-1.12-.83-1.55-.38-2.07.59-1.78 3.27-4.34 4.25-7.74 2.79.73 15.17 3.4 29.78 6.91 44.28 3.16 13.06 5.9 26.21 7.48 39.65 1.31 11.12 3.62 22.1 5.18 33.19 1.29 9.14 2.06 18.37 3.22 27.54 1.8 14.23 2.58 28.62 5.91 42.61 1.28 5.37-.92 8.62-6.06 9.39-3.22.48-6.41 1.19-9.68 1.81.91 1.46 2.79 1.29 3.58 2.85 1.08 2.13 1.2 4.27-.34 5.99-2.08 2.33-4.75 2.29-7.4 1.2-4.36-1.8-8.25-4.52-11.78-7.74-2.7-2.46-5.75-3.32-9.11-3.3-5.23.03-10.06-2.31-15.24-2.84-3.05-.31-3.17-4.45-3.83-7.29-1.44-6.11-2.99-12.17-6.46-17.39-5.79-8.69-15.44-11.22-22.04.13-3.21 5.52-7.14 10.95-5.88 18.54.49 2.93-1.79 5.58-5.31 5.52-1.67-.03-3.36.2-5.01-.04-9.36-1.33-17.7 1.37-25.44 6.97-2.13 1.54-4.52 2.86-7.27 3.04-2.52.17-4.33-.37-5.41-3.23-1.05-2.76.01-4.52 1.71-6.13 1.22-1.13 2.62-2.02 4.88-3.76zm184.19-345.2c-.38-6.61-.75-14.48-2.3-22.27-3.92-19.76-13.79-34.72-30.75-43.63-13.29-6.98-27.82-9.16-42.33-10.81-12.46-1.41-24.98-2.23-37.47-3.4-4.17-.39-8.77.24-10.6-5.71-1.22-3.96-4.42-6.04-7.3-3.92-3.97 2.92-7.12 4.86-11.06.61-.05-.05-.24.05-.37.07-12.88 2.36-25.32 6.04-36.35 13.98-9.16 6.6-16.81 14.88-23.86 23.93-11.79 15.14-18.93 32.42-20.34 52.09-1.3 18.02 2.46 35.12 10.34 51.06 8.58 17.36 20.36 31.77 35.14 43.4 18.32 14.42 38.37 24.37 60.86 28.58 2.84.53 2.16-.52 2.27-2.1.48-6.89 4.39-9.12 9.8-5.57 3.37 2.21 6.84 4.26 9.73 7.23 2.87 2.94 5.83 2.57 8.69.05 2.45-2.16 5.19-3.77 7.98-5.31 2.27-1.26 4.64-1.22 6.14 1.08 1.39 2.13 2.53 2.02 4.65 1.27 18.04-6.43 31.47-19.43 42.2-35.53 16.6-24.93 24.14-53.28 24.93-85.1zm-114.19 137.91c-3.46.16-6.93-.97-10.25-1.96-2.75-.82-2.91.64-3.39 2.29-3.35 11.5-6.43 23.08-9.98 34.51-8.38 26.98-17.27 53.79-25.38 80.86-7.68 25.62-14.57 51.52-22.74 76.98-1.09 3.39-.22 3.97 2.57 4.57 9.09 1.94 18.27 1.48 27.44 1.66 1.95.04 2.88-.74 3.16-2.57.87-5.85 3.36-10.93 6.34-15.77 11.24-18.23 29.36-18.79 41.44-1.27 3.76 5.45 6.08 11.63 7.92 18.09.3 1.05.02 2.74 2.15 3.23 11.11 2.56 22.21 2.13 33.36.76 1.68-.2 1.3-1.27 1.36-2.3.22-3.86-.62-7.59-1.21-11.34-1.09-6.96-2.46-13.87-3.37-20.85-1.47-11.35-2.53-22.75-4.01-34.1-1.33-10.19-3.12-20.32-4.47-30.51-1.57-11.81-3.01-23.65-5.89-35.18-4.45-17.86-8.1-35.85-8.82-54.41-.2-5.09-.91-5.39-5.08-2.76-4.37 2.76-8.66 5.68-13.11 8.27-3.68 2.15-7.76.34-7.98-3.54-.27-4.76-.06-9.54-.06-14.66zm152.78-2.66c-.44-4.94-1.6-9.56-6.26-11.67-3.87-1.75-7.24-.42-10.47 2.57-3.59 3.33-5.17 7.81-7.3 12.03-1.01 2-1.89 4-4.69 3.96-2.87-.04-4.47-1.47-5.51-4.05-1.11-2.74-2.28-5.48-4.12-7.73-2.25-2.76-4.7-5.64-8.63-4.41-4.36 1.37-6.51 5.02-7.13 9.82-1.01 7.78 1.97 14.22 5.37 20.56 4.57 8.49 11.72 14.76 17 22.63 1.06 1.58 1.46.65 2.29 0 8.94-7.02 15.89-16.05 22.37-25.55 3.72-5.43 6.53-11.27 7.08-18.16z"/><path class="st0" d="M1494.68 372.36c15.94-.69 29.41-6.97 41.05-18.07 10.05-9.59 17.49-21.34 24.27-33.65 1.12-2.03 1.4-3.36-1.09-5.19-2.81-2.07-5.08-5.33-4.89-9.66.12-2.75 1.42-4.36 3.8-4.73 2.17-.34 4.81-1.04 5.43 2.48.24 1.36 1.16 1.84 1.94 2.36 5.46 3.7 10.75 7.78 17.94 6.05 2.55-.61 4.78 1.58 5.47 4.03.76 2.67.5 5.63-2.24 7.47-3.8 2.56-7.86 2.05-11.65.57-2.34-.92-2.99-.24-4.04 1.73-8.11 15.23-17.54 29.4-30.18 40.71-9.84 8.81-20.74 15.33-33.72 17.5-17.45 2.92-32.98-2.82-47.43-12.21-12.63-8.2-22.86-19.5-31.28-32.58-3.54-5.51-6.09-11.5-6.55-18.28-.11-1.59-.68-1.82-1.87-1.64-1.25.18-2.49-.17-3.77.43-3.6 1.69-4.9-1.13-5.64-3.95-.79-2.98.64-5.06 3.47-5.56 3.5-.61 6.42-2.81 9.84-3.76 3.22-.89 6.09-.13 8.93.7 2.94.86 3.3 7.25.33 9.34-2.3 1.62-2.11 3.03-1.29 5.2 3.88 10.27 10.19 18.6 17.54 26.23 6.05 6.27 12.6 11.74 19.91 16.18 8.07 4.91 16.65 8.02 25.72 8.3zm-23.16-108.51c.13-7.35 1.34-14.55 3.19-21.58 1.11-4.23 3.9-5.84 7.45-5.04 2.64.59 4.35 4.32 3.36 7.1-2.87 8.08-3.13 16.4-1.69 24.8.69 4.05-1.17 7.5-5.03 8.6-2.68.76-5.34-1.55-6.52-5.31-.88-2.84-.66-5.69-.76-8.57zm-25.4-.28c.97-8.69 1.43-17.49 5.62-25.38 1.88-3.55 4.74-5.04 7.63-3.39 2.92 1.67 3.42 4.49 2.11 7.56-3.3 7.72-3.76 15.9-3.8 24.22-.02 4.56-2.36 7.26-5.56 7.05-3.48-.22-5.92-3.3-5.99-7.58-.02-.83-.01-1.65-.01-2.48zm-203.47 90.46c16.49.61 31.48-2.69 45.54-10.01 11.14-5.8 20.16-14.33 26.37-26.11 1.29-2.45 1.18-3.68-1.06-4.77-1.85-.9-2.86-2.39-3.37-4.53-.77-3.21 1.01-5.89 4.13-5.94 3.34-.06 5.85 2.04 8.51 3.73 2.24 1.42 3.86 3.59 7.18 3.14 2.96-.4 5.6 3.59 5.12 6.77-.49 3.25-2.14 5.62-5.58 5.38-1.79-.12-2.79.65-3.59 2.22-11.52 22.47-30.21 34.04-52.58 40.1-14.09 3.82-28.45 4.75-42.75 3.12-17.29-1.97-34.01-6.54-48.53-17.77-10.91-8.44-18.42-19.87-24.89-32.2-2.64-5.02-5.17-10.17-6.41-15.88-.14-.64-.69-1.33-.57-1.87 1.15-5.41-1.24-7.39-5.93-7.66-1.45-.08-2.79-1.15-3.92-2.32-2.85-2.93-2.15-6.29 1.55-7.86 1.41-.6 2.98-.86 4.12-.32 3.76 1.77 6.62-.25 9.47-2.18 2.74-1.86 5.44-2.56 7.79.22 1.93 2.29.56 5.81-1.94 8.75-1.78 2.09-1 5.24-.36 7.82 2.48 10.07 7.55 18.78 13.14 27.07 11.95 17.71 28.85 26.18 48.5 29.53 6.94 1.2 13.86 1.84 20.06 1.57zm18.51-118.66c-.65 2.52.33 5.25.89 7.78 1.64 7.38-.52 14.22-1.74 21.2-.75 4.27-3.51 6.09-7.11 5.13-3.15-.84-4.73-3.92-3.68-7.84 2.09-7.79 2.57-15.67 1.53-23.66-.2-1.53-.11-2.99.01-4.5.38-4.77 1.16-5.6 5.27-5.43 3.47.14 5 2.16 4.83 5.81-.02.41 0 .83 0 1.51zm25.29 16.4c.8 3.46-.61 6.88-.73 10.43-.1 2.83-3.59 5.3-6.12 4.74-3.87-.87-6.38-3.88-5.14-6.96 3-7.45 1.85-14.75.07-22.13-.06-.26-.19-.51-.24-.78-.81-4.67.5-8.52 3.36-8.81 4.07-.41 4.96 2.95 5.88 6.35 1.52 5.58 3.66 11 2.92 17.16z"/></svg>
